<svg width="598" height="501" viewBox="0 0 598 501" fill="none" xmlns="http://www.w3.org/2000/svg">
<g clip-path="url(#clip0_299_52)">
<rect width="598" height="501" fill="#FFF2CE"/>
<path d="M522.024 449.847C496.672 414.352 588.768 396.121 584.495 428.787C580.223 461.453 547.375 485.342 522.024 449.847Z" stroke="#A25701" stroke-opacity="0.15" stroke-width="2"/>
<path d="M454.366 536.435C430.12 491.804 523.119 466.107 517.741 507.909C512.363 549.71 478.612 581.065 454.366 536.435Z" stroke="#A25701" stroke-opacity="0.15" stroke-width="2"/>
<path d="M327.278 244.568C301.926 209.073 394.022 190.842 389.749 223.508C385.477 256.173 352.629 280.062 327.278 244.568Z" stroke="#A25701" stroke-opacity="0.15" stroke-width="2"/>
<path d="M596.239 349.633C576.84 315.723 670.574 318.067 661.196 344.085C651.817 370.103 615.637 383.543 596.239 349.633Z" stroke="#A25701" stroke-opacity="0.15" stroke-width="2"/>
<path d="M430.196 411.114C388.604 420.16 412.546 339.626 438.926 353.67C465.306 367.714 471.788 402.069 430.196 411.114Z" stroke="#A25701" stroke-opacity="0.15" stroke-width="2"/>
<path d="M313.488 497.553C258.084 506.988 285.039 405.069 321.477 424.422C357.914 443.776 368.893 488.118 313.488 497.553Z" stroke="#A25701" stroke-opacity="0.15" stroke-width="2"/>
<path d="M561.844 363.721C561.844 363.721 567.764 345.42 567.103 327.108M538.318 276.7C538.318 276.7 542.024 279.262 549.085 287.824M567.103 327.108C567.103 327.108 543.807 335.819 523.51 309.251C503.213 282.682 565.308 314.138 565.308 314.138M567.103 327.108C567.046 325.542 566.942 323.976 566.781 322.421M565.308 314.138C566.014 316.817 566.49 319.6 566.781 322.421M565.308 314.138C564.819 312.287 564.22 310.486 563.496 308.758M555.577 296.2C557.081 298.251 558.68 300.502 560.37 302.969C561.605 304.771 562.639 306.713 563.496 308.758M555.577 296.2C555.577 296.2 574.367 283.516 568.245 265.278C562.122 247.041 549.085 287.824 549.085 287.824M555.577 296.2C554.551 294.801 553.568 293.495 552.63 292.277M549.085 287.824C550.186 289.158 551.368 290.638 552.63 292.277M552.63 292.277C557.575 286.334 559.956 282.443 562.189 272.632M566.781 322.421C561.807 318.076 550.959 320.923 541.677 312.476M563.496 308.758C563.496 308.758 561.38 305.958 570.902 301.174C580.424 296.391 578.58 287.855 578.58 287.855" stroke="#A25701" stroke-opacity="0.15" stroke-width="2"/>
<path d="M414.371 539.901C414.371 539.901 420.291 521.601 419.63 503.288M390.845 452.88C390.845 452.88 394.551 455.442 401.612 464.004M419.63 503.288C419.63 503.288 396.334 511.999 376.037 485.431C355.74 458.862 417.835 490.319 417.835 490.319M419.63 503.288C419.573 501.722 419.469 500.156 419.308 498.602M417.835 490.319C418.541 492.997 419.017 495.78 419.308 498.602M417.835 490.319C417.346 488.467 416.748 486.666 416.023 484.938M408.104 472.38C409.608 474.431 411.207 476.682 412.897 479.149C414.132 480.951 415.166 482.894 416.023 484.938M408.104 472.38C408.104 472.38 426.894 459.696 420.772 441.458C414.649 423.221 401.612 464.004 401.612 464.004M408.104 472.38C407.078 470.981 406.095 469.675 405.157 468.457M401.612 464.004C402.713 465.338 403.895 466.818 405.157 468.457M405.157 468.457C410.102 462.514 412.483 458.623 414.716 448.812M419.308 498.602C414.334 494.256 403.486 497.103 394.204 488.656M416.023 484.938C416.023 484.938 413.907 482.138 423.429 477.354C432.951 472.571 431.107 464.035 431.107 464.035" stroke="#A25701" stroke-opacity="0.15" stroke-width="2"/>
<path d="M178.691 529.746C178.691 529.746 197.572 520.731 211.867 507.522M232.387 454.02C232.387 454.02 232.91 458.166 230.942 468.634M211.867 507.522C211.867 507.522 188.58 498.793 195.816 467.335C203.052 435.877 221.065 497.325 221.065 497.325M211.867 507.522C213.089 506.393 214.278 505.233 215.419 504.045M221.065 497.325C219.4 499.644 217.489 501.89 215.419 504.045M221.065 497.325C222.216 495.721 223.249 494.083 224.135 492.415M228.725 478.611C228.123 481 227.425 483.588 226.618 486.386C226.028 488.429 225.184 490.443 224.135 492.415M228.725 478.611C228.725 478.611 252.068 481.701 262.489 465.073C272.91 448.445 230.942 468.634 230.942 468.634M228.725 478.611C229.136 476.982 229.502 475.445 229.828 473.998M230.942 468.634C230.635 470.266 230.268 472.051 229.828 473.998M229.828 473.998C238.07 472.992 242.868 471.789 252.335 466.358M215.419 504.045C215.447 497.848 205.578 492.939 205.903 481.139M224.135 492.415C224.135 492.415 224.914 489.115 235.418 491.829C245.922 494.543 251.513 487.41 251.513 487.41" stroke="#A25701" stroke-opacity="0.15" stroke-width="2"/>
<path d="M469.919 222.854C469.919 222.854 465.317 204.257 454.921 188.433M402.591 156.276C402.591 156.276 407.224 156.963 418.022 161.506M454.921 188.433C454.921 188.433 439.103 205.945 407.014 191.164C374.926 176.383 446.391 177.787 446.391 177.787M454.921 188.433C454.032 187.08 453.101 185.747 452.126 184.448M446.391 177.787C448.448 179.843 450.358 182.09 452.126 184.448M446.391 177.787C444.969 176.365 443.477 175.034 441.914 173.821M428.22 166.127C430.642 167.294 433.254 168.597 436.063 170.052C438.115 171.115 440.064 172.386 441.914 173.821M428.22 166.127C428.22 166.127 437.946 147.025 422.787 133.577C407.628 120.128 418.022 161.506 418.022 161.506M428.22 166.127C426.567 165.33 425.003 164.597 423.526 163.923M418.022 161.506C419.705 162.214 421.537 163.016 423.526 163.923M423.526 163.923C424.689 156.606 424.697 152.177 421.403 142.604M452.126 184.448C445.423 182.73 437.409 189.821 424.719 186.318M441.914 173.821C441.914 173.821 438.552 172.253 444.362 164.02C450.172 155.787 443.976 149.06 443.976 149.06" stroke="#A25701" stroke-opacity="0.15" stroke-width="2"/>
<path d="M489.163 362.59C489.163 362.59 492.382 351.864 511.24 348.281C530.098 344.698 515.105 367.661 499.05 365.967C482.995 364.273 489.163 362.59 489.163 362.59ZM489.163 362.59C489.163 362.59 494.94 363.509 502.131 360.366C509.322 357.223 512.287 354.306 512.287 354.306" stroke="#A25701" stroke-opacity="0.15" stroke-width="2"/>
<path d="M478.665 434.902C478.665 434.902 473.065 444.826 453.781 444.939C434.497 445.053 454.418 425.265 469.754 429.815C485.089 434.364 478.665 434.902 478.665 434.902ZM478.665 434.902C478.665 434.902 473.218 432.962 465.458 434.745C457.699 436.528 454.13 438.851 454.13 438.851" stroke="#A25701" stroke-opacity="0.15" stroke-width="2"/>
<path d="M364.025 426.233C364.025 426.233 351.533 425.901 343.295 410.413C335.057 394.924 363.652 402.64 365.465 416.911C367.279 431.182 364.025 426.233 364.025 426.233ZM364.025 426.233C364.025 426.233 363.711 421.027 358.622 415.527C353.533 410.027 349.659 408.13 349.659 408.13" stroke="#A25701" stroke-opacity="0.15" stroke-width="2"/>
<path d="M534.468 485.835C534.468 485.835 546.836 484.238 557.973 498.222C569.11 512.207 539.442 509.013 534.87 495.238C530.297 481.463 534.468 485.835 534.468 485.835ZM534.468 485.835C534.468 485.835 535.794 490.914 541.879 495.547C547.965 500.18 552.151 501.451 552.151 501.451" stroke="#A25701" stroke-opacity="0.15" stroke-width="2"/>
<path d="M511.075 121.785C511.075 121.785 526.913 108.954 537.153 93.0492M542.373 36.7178C542.373 36.7178 544.018 40.6255 544.981 51.2043M537.153 93.0492C537.153 93.0492 512.172 89.6251 510.558 57.5489C508.944 25.4727 543.274 81.1676 543.274 81.1676M537.153 93.0492C538.028 91.6893 538.863 90.3069 539.643 88.9081M543.274 81.1676C542.296 83.7774 541.059 86.3697 539.643 88.9081M543.274 81.1676C543.951 79.3632 544.503 77.5505 544.905 75.7415M545.569 61.3598C545.64 63.8067 545.674 66.4676 545.658 69.3562C545.647 71.4662 545.381 73.6013 544.905 75.7415M545.569 61.3598C545.569 61.3598 569.056 59.3027 574.6 40.92C580.143 22.5372 544.981 51.2043 544.981 51.2043M545.569 61.3598C545.52 59.6907 545.454 58.1212 545.373 56.647M544.981 51.2043C545.131 52.853 545.265 54.6637 545.373 56.647M545.373 56.647C553.091 53.8871 557.414 51.6813 565.104 44.3644M539.643 88.9081C537.97 82.8915 527.051 80.2674 524.129 68.7525M544.905 75.7415C544.905 75.7415 544.755 72.3716 555.687 72.7297C566.619 73.0878 570.084 64.9595 570.084 64.9595" stroke="#A25701" stroke-opacity="0.15" stroke-width="2"/>
<path d="M345.541 380.691C345.541 380.691 361.378 367.86 371.618 351.955M376.839 295.624C376.839 295.624 378.484 299.531 379.447 310.11M371.618 351.955C371.618 351.955 346.638 348.531 345.024 316.455C343.41 284.379 377.74 340.073 377.74 340.073M371.618 351.955C372.494 350.595 373.329 349.213 374.109 347.814M377.74 340.073C376.762 342.683 375.525 345.276 374.109 347.814M377.74 340.073C378.417 338.269 378.969 336.456 379.371 334.647M380.035 320.266C380.106 322.713 380.14 325.374 380.124 328.262C380.113 330.372 379.847 332.507 379.371 334.647M380.035 320.266C380.035 320.266 403.522 318.209 409.065 299.826C414.609 281.443 379.447 310.11 379.447 310.11M380.035 320.266C379.986 318.597 379.919 317.027 379.839 315.553M379.447 310.11C379.597 311.759 379.731 313.57 379.839 315.553M379.839 315.553C387.557 312.793 391.88 310.587 399.57 303.27M374.109 347.814C372.436 341.797 361.517 339.173 358.595 327.658M379.371 334.647C379.371 334.647 379.221 331.278 390.153 331.636C401.085 331.994 404.55 323.865 404.55 323.865" stroke="#A25701" stroke-opacity="0.15" stroke-width="2"/>
<path d="M605.448 225.429C605.448 225.429 593.057 223.979 586.62 207.832C580.183 191.685 607.755 201.923 607.94 216.283C608.124 230.644 605.448 225.429 605.448 225.429ZM605.448 225.429C605.448 225.429 605.727 220.221 601.289 214.293C596.85 208.365 593.211 206.131 593.211 206.131" stroke="#A25701" stroke-opacity="0.15" stroke-width="2"/>
<path d="M410.245 240.467C410.245 240.467 401.328 232.69 407.118 216.35C412.909 200.011 428.005 222.921 418.428 234.493C408.852 246.064 410.245 240.467 410.245 240.467ZM410.245 240.467C410.245 240.467 413.994 236.456 414.462 229.349C414.93 222.242 413.536 218.512 413.536 218.512" stroke="#A25701" stroke-opacity="0.15" stroke-width="2"/>
<path d="M375.715 143.897C375.715 143.897 380.113 154.288 367.111 166.939C354.109 179.59 351.286 153.163 365.459 146.253C379.633 139.343 375.715 143.897 375.715 143.897ZM375.715 143.897C375.715 143.897 370.412 146.132 366.617 152.402C362.821 158.672 362.317 162.577 362.317 162.577" stroke="#A25701" stroke-opacity="0.15" stroke-width="2"/>
<path d="M243.353 89.3557C243.353 89.3557 230.868 89.861 221.339 74.9683C211.811 60.0756 240.979 65.855 243.998 79.9638C247.018 94.0727 243.353 89.3557 243.353 89.3557ZM243.353 89.3557C243.353 89.3557 242.598 84.1857 237.057 79.0419C231.516 73.8981 227.492 72.2657 227.492 72.2657" stroke="#A25701" stroke-opacity="0.15" stroke-width="2"/>
<path d="M500.329 258.028C500.329 258.028 489.903 251.906 492.075 234.885C494.246 217.864 513.989 237.792 507.077 250.775C500.164 263.758 500.329 258.028 500.329 258.028ZM500.329 258.028C500.329 258.028 503.146 253.455 502.078 246.399C501.009 239.343 498.839 235.919 498.839 235.919" stroke="#A25701" stroke-opacity="0.15" stroke-width="2"/>
<path d="M467.699 136.412C467.699 136.412 465.621 125.466 481.108 115.259C496.595 105.052 493.672 131.47 478.272 135.843C462.872 140.216 467.699 136.412 467.699 136.412ZM467.699 136.412C467.699 136.412 473.385 135.12 478.461 129.611C483.537 124.102 484.874 120.355 484.874 120.355" stroke="#A25701" stroke-opacity="0.15" stroke-width="2"/>
<path d="M369.261 79.4759C369.261 79.4759 358.396 73.9912 359.272 56.879C360.149 39.7669 381.357 58.4691 375.444 71.8357C369.531 85.2023 369.261 79.4759 369.261 79.4759ZM369.261 79.4759C369.261 79.4759 371.726 74.7446 370.125 67.7687C368.524 60.7928 366.099 57.5059 366.099 57.5059" stroke="#A25701" stroke-opacity="0.15" stroke-width="2"/>
<path d="M570.431 130.277C557.765 87.8934 642.488 106.884 629.872 142.334C617.256 177.784 583.097 172.66 570.431 130.277Z" stroke="#A25701" stroke-opacity="0.15" stroke-width="2"/>
<path d="M408.446 62.8058C399.007 11.1376 484.083 29.1151 468.24 73.8498C452.397 118.584 417.885 114.474 408.446 62.8058Z" stroke="#A25701" stroke-opacity="0.15" stroke-width="2"/>
<path d="M272.773 37.4342C263.334 -14.2339 348.41 3.74347 332.567 48.4782C316.724 93.2129 282.212 89.1023 272.773 37.4342Z" stroke="#A25701" stroke-opacity="0.15" stroke-width="2"/>
<path d="M429.564 273.857C416.898 231.474 501.622 250.464 489.006 285.914C476.39 321.364 442.23 316.24 429.564 273.857Z" stroke="#A25701" stroke-opacity="0.15" stroke-width="2"/>
<path d="M512.556 176.405C549.643 167.936 567.429 222.541 533.419 216.638C499.409 210.734 475.469 184.875 512.556 176.405Z" stroke="#A25701" stroke-opacity="0.15" stroke-width="2"/>
<path d="M135.128 456.767C109.776 421.272 201.872 403.041 197.6 435.706C193.327 468.372 160.48 492.261 135.128 456.767Z" stroke="#A25701" stroke-opacity="0.15" stroke-width="2"/>
<path d="M-59.618 251.487C-84.9699 215.992 7.1262 197.761 2.85378 230.427C-1.41863 263.093 -34.2661 286.982 -59.618 251.487Z" stroke="#A25701" stroke-opacity="0.15" stroke-width="2"/>
<path d="M209.343 356.552C189.945 322.643 283.679 324.987 274.3 351.004C264.922 377.022 228.742 390.462 209.343 356.552Z" stroke="#A25701" stroke-opacity="0.15" stroke-width="2"/>
<path d="M43.3005 418.034C1.70824 427.079 25.6503 346.546 52.0305 360.589C78.4106 374.633 84.8928 408.989 43.3005 418.034Z" stroke="#A25701" stroke-opacity="0.15" stroke-width="2"/>
<path d="M174.949 370.64C174.949 370.64 180.868 352.34 180.207 334.027M151.422 283.619C151.422 283.619 155.129 286.182 162.19 294.744M180.207 334.027C180.207 334.027 156.912 342.738 136.614 316.17C116.317 289.602 178.412 321.058 178.412 321.058M180.207 334.027C180.151 332.462 180.046 330.896 179.886 329.341M178.412 321.058C179.119 323.736 179.594 326.52 179.886 329.341M178.412 321.058C177.924 319.206 177.325 317.405 176.6 315.677M168.681 303.12C170.186 305.17 171.784 307.421 173.475 309.889C174.71 311.691 175.743 313.633 176.6 315.677M168.681 303.12C168.681 303.12 187.472 290.435 181.349 272.198C175.226 253.961 162.19 294.744 162.19 294.744M168.681 303.12C167.655 301.721 166.673 300.415 165.734 299.197M162.19 294.744C163.29 296.078 164.472 297.558 165.734 299.197M165.734 299.197C170.679 293.254 173.06 289.363 175.294 279.551M179.886 329.341C174.911 324.995 164.064 327.843 154.782 319.396M176.6 315.677C176.6 315.677 174.484 312.877 184.006 308.094C193.528 303.31 191.685 294.774 191.685 294.774" stroke="#A25701" stroke-opacity="0.15" stroke-width="2"/>
<path d="M83.0237 229.773C83.0237 229.773 78.4214 211.177 68.0252 195.352M15.6953 163.196C15.6953 163.196 20.328 163.882 31.1262 168.425M68.0252 195.352C68.0252 195.352 52.2076 212.864 20.1188 198.083C-11.97 183.303 59.4956 184.706 59.4956 184.706M68.0252 195.352C67.1363 193.999 66.205 192.666 65.2306 191.367M59.4956 184.706C61.5522 186.763 63.4624 189.01 65.2306 191.367M59.4956 184.706C58.0738 183.284 56.5819 181.954 55.0186 180.741M41.324 173.046C43.7461 174.213 46.358 175.517 49.1673 176.972C51.2194 178.034 53.169 179.305 55.0186 180.741M41.324 173.046C41.324 173.046 51.0503 153.945 35.8916 140.496C20.7329 127.048 31.1262 168.425 31.1262 168.425M41.324 173.046C39.6718 172.25 38.108 171.517 36.6301 170.843M31.1262 168.425C32.8092 169.133 34.6418 169.935 36.6301 170.843M36.6301 170.843C37.7936 163.525 37.8018 159.097 34.5077 149.524M65.2306 191.367C58.5272 189.649 50.5137 196.741 37.824 193.237M55.0186 180.741C55.0186 180.741 51.6569 179.173 57.4669 170.94C63.277 162.706 57.0808 155.979 57.0808 155.979" stroke="#A25701" stroke-opacity="0.15" stroke-width="2"/>
<path d="M284.732 315.299C284.732 315.299 279.749 305.119 292.015 291.9C304.281 278.682 308.603 304.949 294.84 312.486C281.078 320.023 284.732 315.299 284.732 315.299ZM284.732 315.299C284.732 315.299 289.901 312.83 293.335 306.397C296.769 299.964 297.051 296.042 297.051 296.042" stroke="#A25701" stroke-opacity="0.15" stroke-width="2"/>
<path d="M102.267 369.51C102.267 369.51 105.487 358.783 124.345 355.2C143.202 351.617 128.209 374.581 112.154 372.887C96.0994 371.193 102.267 369.51 102.267 369.51ZM102.267 369.51C102.267 369.51 108.044 370.429 115.236 367.286C122.427 364.142 125.392 361.225 125.392 361.225" stroke="#A25701" stroke-opacity="0.15" stroke-width="2"/>
<path d="M227.529 417.369C227.529 417.369 217.312 410.975 220.051 394.019C222.79 377.062 241.859 397.502 234.516 410.297C227.173 423.091 227.529 417.369 227.529 417.369ZM227.529 417.369C227.529 417.369 230.498 412.872 229.665 405.791C228.833 398.71 226.778 395.23 226.778 395.23" stroke="#A25701" stroke-opacity="0.15" stroke-width="2"/>
<path d="M91.7697 441.821C91.7697 441.821 86.1695 451.745 66.8855 451.859C47.6015 451.972 67.523 432.185 82.8583 436.734C98.1936 441.283 91.7697 441.821 91.7697 441.821ZM91.7697 441.821C91.7697 441.821 86.3222 439.881 78.563 441.664C70.8037 443.448 67.2347 445.77 67.2347 445.77" stroke="#A25701" stroke-opacity="0.15" stroke-width="2"/>
<path d="M248.1 283.076C248.1 283.076 263.938 270.245 274.178 254.341M279.398 198.009C279.398 198.009 281.043 201.917 282.006 212.496M274.178 254.341C274.178 254.341 249.198 250.916 247.584 218.84C245.97 186.764 280.3 242.459 280.3 242.459M274.178 254.341C275.053 252.981 275.888 251.598 276.668 250.199M280.3 242.459C279.322 245.069 278.084 247.661 276.668 250.199M280.3 242.459C280.976 240.655 281.529 238.842 281.931 237.033M282.594 222.651C282.666 225.098 282.699 227.759 282.684 230.648C282.672 232.758 282.407 234.893 281.931 237.033M282.594 222.651C282.594 222.651 306.081 220.594 311.625 202.211C317.169 183.829 282.006 212.496 282.006 212.496M282.594 222.651C282.545 220.982 282.479 219.413 282.398 217.938M282.006 212.496C282.157 214.144 282.29 215.955 282.398 217.938M282.398 217.938C290.116 215.178 294.439 212.973 302.13 205.656M276.668 250.199C274.995 244.183 264.076 241.559 261.154 230.044M281.931 237.033C281.931 237.033 281.78 233.663 292.712 234.021C303.644 234.379 307.11 226.251 307.11 226.251" stroke="#A25701" stroke-opacity="0.15" stroke-width="2"/>
<path d="M270.333 165.806C270.333 165.806 290.439 159.203 306.657 147.883M335.328 97.4238C335.328 97.4238 335.199 101.594 331.616 111.719M306.657 147.883C306.657 147.883 284.957 136.37 297.033 106.107C309.108 75.8434 317.357 138.916 317.357 138.916M306.657 147.883C308.044 146.915 309.402 145.912 310.717 144.877M317.357 138.916C315.347 141.008 313.103 142.997 310.717 144.877M317.357 138.916C318.747 137.47 320.026 135.974 321.164 134.432M327.864 121.326C326.895 123.618 325.8 126.095 324.564 128.766C323.66 130.718 322.511 132.608 321.164 134.432M327.864 121.326C327.864 121.326 350.5 127.261 363.415 112.076C376.33 96.8919 331.616 111.719 331.616 111.719M327.864 121.326C328.525 119.763 329.128 118.287 329.677 116.894M331.616 111.719C331.058 113.297 330.416 115.02 329.677 116.894M329.677 116.894C337.996 116.912 342.936 116.311 353.158 112.098M310.717 144.877C311.712 138.743 302.704 132.666 304.868 121.019M321.164 134.432C321.164 134.432 322.451 131.259 332.43 135.24C342.409 139.222 349.059 132.846 349.059 132.846" stroke="#A25701" stroke-opacity="0.15" stroke-width="2"/>
<path d="M124.18 128.704C124.18 128.704 140.017 115.873 150.257 99.9687M155.477 43.6372C155.477 43.6372 157.122 47.5449 158.086 58.1237M150.257 99.9687C150.257 99.9687 125.277 96.5445 123.663 64.4683C122.049 32.3921 156.379 88.087 156.379 88.087M150.257 99.9687C151.133 98.6087 151.967 97.2263 152.748 95.8275M156.379 88.087C155.401 90.6968 154.164 93.2891 152.748 95.8275M156.379 88.087C157.055 86.2827 157.608 84.47 158.01 82.661M158.673 68.2792C158.745 70.7261 158.779 73.3871 158.763 76.2756C158.751 78.3856 158.486 80.5207 158.01 82.661M158.673 68.2792C158.673 68.2792 182.16 66.2222 187.704 47.8394C193.248 29.4566 158.086 58.1237 158.086 58.1237M158.673 68.2792C158.625 66.6101 158.558 65.0406 158.478 63.5664M158.086 58.1237C158.236 59.7724 158.369 61.5832 158.478 63.5664M158.478 63.5664C166.195 60.8065 170.518 58.6007 178.209 51.2839M152.748 95.8275C151.074 89.811 140.156 87.1868 137.233 75.6719M158.01 82.661C158.01 82.661 157.86 79.2911 168.791 79.6492C179.723 80.0073 183.189 71.879 183.189 71.879" stroke="#A25701" stroke-opacity="0.15" stroke-width="2"/>
<path d="M-41.3545 387.61C-41.3545 387.61 -25.517 374.779 -15.2771 358.875M-10.0566 302.543C-10.0566 302.543 -8.41167 306.451 -7.44833 317.03M-15.2771 358.875C-15.2771 358.875 -40.2572 355.451 -41.8712 323.374C-43.4851 291.298 -9.15511 346.993 -9.15511 346.993M-15.2771 358.875C-14.4015 357.515 -13.5668 356.132 -12.7865 354.734M-9.15511 346.993C-10.1333 349.603 -11.3705 352.195 -12.7865 354.734M-9.15511 346.993C-8.47882 345.189 -7.92632 343.376 -7.52408 341.567M-6.86073 327.185C-6.78919 329.632 -6.75555 332.293 -6.77119 335.182C-6.78261 337.292 -7.04818 339.427 -7.52408 341.567M-6.86073 327.185C-6.86073 327.185 16.6263 325.128 22.1701 306.745C27.7139 288.363 -7.44833 317.03 -7.44833 317.03M-6.86073 327.185C-6.90953 325.516 -6.97596 323.947 -7.0564 322.472M-7.44833 317.03C-7.2982 318.678 -7.16462 320.489 -7.0564 322.472M-7.0564 322.472C0.661122 319.713 4.98416 317.507 12.6749 310.19M-12.7865 354.734C-14.4597 348.717 -25.3785 346.093 -28.3007 334.578M-7.52408 341.567C-7.52408 341.567 -7.67449 338.197 3.25742 338.555C14.1893 338.913 17.6547 330.785 17.6547 330.785" stroke="#A25701" stroke-opacity="0.15" stroke-width="2"/>
<path d="M218.552 232.348C218.552 232.348 206.162 230.899 199.724 214.752C193.287 198.604 220.86 208.842 221.044 223.203C221.228 237.564 218.552 232.348 218.552 232.348ZM218.552 232.348C218.552 232.348 218.831 227.141 214.393 221.213C209.954 215.285 206.315 213.05 206.315 213.05" stroke="#A25701" stroke-opacity="0.15" stroke-width="2"/>
<path d="M23.3497 247.387C23.3497 247.387 14.4323 239.609 20.223 223.27C26.0136 206.931 41.1093 229.841 31.5328 241.412C21.9563 252.983 23.3497 247.387 23.3497 247.387ZM23.3497 247.387C23.3497 247.387 27.0987 243.376 27.5667 236.269C28.0346 229.162 26.6403 225.432 26.6403 225.432" stroke="#A25701" stroke-opacity="0.15" stroke-width="2"/>
<path d="M113.433 264.948C113.433 264.948 103.008 258.826 105.179 241.805C107.35 224.784 127.094 244.712 120.181 257.695C113.268 270.677 113.433 264.948 113.433 264.948ZM113.433 264.948C113.433 264.948 116.251 260.374 115.182 253.319C114.114 246.263 111.943 242.838 111.943 242.838" stroke="#A25701" stroke-opacity="0.15" stroke-width="2"/>
<path d="M80.8031 143.332C80.8031 143.332 78.7251 132.385 94.2122 122.178C109.699 111.971 106.777 138.39 91.3765 142.763C75.9763 147.135 80.8031 143.332 80.8031 143.332ZM80.8031 143.332C80.8031 143.332 86.489 142.04 91.5654 136.531C96.6417 131.021 97.9781 127.275 97.9781 127.275" stroke="#A25701" stroke-opacity="0.15" stroke-width="2"/>
<path d="M183.535 137.196C170.869 94.8129 255.593 113.803 242.977 149.253C230.361 184.703 196.201 179.58 183.535 137.196Z" stroke="#A25701" stroke-opacity="0.15" stroke-width="2"/>
<path d="M21.5508 69.7253C12.1119 18.0572 97.1876 36.0346 81.3446 80.7693C65.5015 125.504 30.9897 121.393 21.5508 69.7253Z" stroke="#A25701" stroke-opacity="0.15" stroke-width="2"/>
<path d="M42.6689 280.777C30.0029 238.393 114.726 257.384 102.111 292.833C89.4946 328.283 55.3349 323.16 42.6689 280.777Z" stroke="#A25701" stroke-opacity="0.15" stroke-width="2"/>
<path d="M125.66 183.325C162.747 174.856 180.534 229.461 146.524 223.557C112.514 217.653 88.5734 191.794 125.66 183.325Z" stroke="#A25701" stroke-opacity="0.15" stroke-width="2"/>
</g>
<defs>
<clipPath id="clip0_299_52">
<rect width="598" height="501" fill="white"/>
</clipPath>
</defs>
</svg>
